<?xml version="1.0" encoding="UTF-8"?>
<svg width="192px" height="192px" viewBox="0 0 192 192" version="1.1" xmlns="http://www.w3.org/2000/svg" xmlns:xlink="http://www.w3.org/1999/xlink">
    <!-- Generator: Sketch 50.2 (55047) - http://www.bohemiancoding.com/sketch -->
    <title>404</title>
    <desc>Created with Sketch.</desc>
    <defs></defs>
    <g id="404" stroke="none" stroke-width="1" fill="none" fill-rule="evenodd">
        <path d="M155.4375,98.420348 C158.613891,100.256805 160.75,103.690298 160.75,107.625 L160.75,112.9375 C160.75,116.998472 158.474591,120.525548 155.12852,122.313984 C153.172216,135.054442 142.16249,144.8125 128.875,144.8125 L102.3125,144.8125 C101.902521,144.8125 101.503389,144.766059 101.120077,144.678151 C100.645526,144.766375 100.156242,144.8125 99.65625,144.8125 C98.72125,144.8125 95.27875,144.8125 94.34375,144.8125 C89.945,144.8125 86.375,141.2425 86.375,136.84375 C86.375,132.445 89.945,128.875 94.34375,128.875 C95.27875,128.875 98.72125,128.875 99.65625,128.875 C103.12377,128.875 106.076296,131.09344 107.171006,134.1875 L128.875,134.1875 C135.813596,134.1875 141.717313,129.752265 143.905445,123.5625 L139.5,123.5625 L139.5,107.625 C139.5,74.475 123.5625,59.8125 123.5625,59.8125 C107.625,97 54.5,70.4375 54.5,107.625 L49.1875,107.625 L49.1875,112.9375 C49.1875,117.188478 50.4988275,119.975049 52.6858057,121.888655 C53.9592997,123.002962 55.211442,123.576861 55.7884705,123.721118 L58.6176729,124.428419 L59.53988,127.19504 C59.7963776,127.964533 60.408747,129.477445 61.4098476,131.479647 C63.1042878,134.868527 65.253605,138.262186 67.8780505,141.41152 C75.2343603,150.239092 84.7647748,155.4375 97,155.4375 L126.872188,155.4375 C119.323125,161.530937 109.441875,166.0625 97,166.0625 C81.3446002,166.0625 68.9609522,159.307783 59.7156995,148.21348 C55.1612669,142.748161 52.1316569,137.296496 50.3685312,132.992157 C48.8934921,132.292742 47.2876315,131.283415 45.6891943,129.884782 C41.2355475,125.987842 38.5625,120.307616 38.5625,112.9375 L38.5625,102.3125 L38.5625,86.375 C38.5625,49.1875 70.4375,27.9375 97,27.9375 C118.25,27.9375 123.5625,38.5625 123.5625,38.5625 C144.8125,38.5625 155.4375,65.125 155.4375,86.375 L155.4375,98.420348 Z" id="help" fill="#7B5FFF" fill-rule="nonzero"></path>
    </g>
</svg>