<?xml version="1.0" encoding="UTF-8"?>
<svg width="20px" height="17px" viewBox="0 0 20 17" version="1.1" xmlns="http://www.w3.org/2000/svg" xmlns:xlink="http://www.w3.org/1999/xlink">
    <!-- Generator: Sketch 50 (54983) - http://www.bohemiancoding.com/sketch -->
    <title>error@2x</title>
    <desc>Created with Sketch.</desc>
    <defs></defs>
    <g id="error@2x" stroke="none" stroke-width="1" fill="none" fill-rule="evenodd">
        <g id="Icons/Symbols-&amp;-Shapes/bomb" transform="translate(3.000000, -0.500000)" fill="#7B5FFF" fill-rule="nonzero">
            <g id="Icon">
                <path d="M5.96875,4.25 C5.96875,2.67944024 7.24194024,1.40625 8.8125,1.40625 C10.3830598,1.40625 11.65625,2.67944024 11.65625,4.25 C11.65625,4.6175 11.945,4.90625 12.3125,4.90625 C12.68,4.90625 12.96875,4.6175 12.96875,4.25 L12.96875,3.59375 L14.28125,3.59375 L14.28125,4.25 C14.28125,5.3373106 13.3998106,6.21875 12.3125,6.21875 C11.2251894,6.21875 10.34375,5.3373106 10.34375,4.25 C10.34375,3.40431398 9.65818602,2.71875 8.8125,2.71875 C7.96681398,2.71875 7.28125,3.40431398 7.28125,4.25 L8.375,4.25 L8.375,5.37875 C10.90375,6.13125 12.75,8.47625 12.75,11.25 C12.75,14.6327441 10.0077441,17.375 6.625,17.375 C3.24225591,17.375 0.5,14.6327441 0.5,11.25 C0.5,8.47625 2.34625,6.13125 4.875,5.37875 L4.875,4.25 L5.96875,4.25 L5.96875,4.25 Z M15.375,4.25 L17.125,4.25 L17.125,5.125 L15.375,5.125 L15.375,4.25 L15.375,4.25 Z M12.75,2.5 L12.75,0.75 L13.625,0.75 L13.625,2.5 L12.75,2.5 L12.75,2.5 Z M14.42125,2.8325 L15.66375,1.59 L16.285,2.21125 L15.0425,3.45375 L14.42125,2.8325 Z" id="Shape"></path>
            </g>
        </g>
    </g>
</svg>