<?xml version="1.0" encoding="UTF-8"?>
<svg width="74px" height="223px" viewBox="0 0 74 223" version="1.1" xmlns="http://www.w3.org/2000/svg" xmlns:xlink="http://www.w3.org/1999/xlink">
    <!-- Generator: Sketch 50.2 (55047) - http://www.bohemiancoding.com/sketch -->
    <title>icons@2x</title>
    <desc>Created with Sketch.</desc>
    <defs></defs>
    <g id="icons@2x" stroke="none" stroke-width="1" fill="none" fill-rule="evenodd">
        <g id="Icon" transform="translate(2.000000, 28.000000)" fill="#7A5EFF" fill-rule="nonzero">
            <path d="M12,4 L8,4 L8,2 L12,2 L12,4 Z M18,4 L14,4 L14,2 L12,0 L8,0 L6,2 L6,4 L2,4 C0.89,4 0,4.89 0,6 L0,17 C0,18.1045695 0.8954305,19 2,19 L18,19 C19.1045695,19 20,18.1045695 20,17 L20,6 C20,4.89 19.1,4 18,4 Z" id="Shape"></path>
        </g>
        <g id="Icon-Copy-2" transform="translate(27.000000, 28.000000)" fill="#FFFFFF" fill-rule="nonzero">
            <path d="M12,4 L8,4 L8,2 L12,2 L12,4 Z M18,4 L14,4 L14,2 L12,0 L8,0 L6,2 L6,4 L2,4 C0.89,4 0,4.89 0,6 L0,17 C0,18.1045695 0.8954305,19 2,19 L18,19 C19.1045695,19 20,18.1045695 20,17 L20,6 C20,4.89 19.1,4 18,4 Z" id="Shape"></path>
        </g>
        <g id="Icon" transform="translate(52.000000, 28.000000)" fill="#25303A" fill-rule="nonzero">
            <path d="M12,4 L8,4 L8,2 L12,2 L12,4 Z M18,4 L14,4 L14,2 L12,0 L8,0 L6,2 L6,4 L2,4 C0.89,4 0,4.89 0,6 L0,17 C0,18.1045695 0.8954305,19 2,19 L18,19 C19.1045695,19 20,18.1045695 20,17 L20,6 C20,4.89 19.1,4 18,4 Z" id="Shape"></path>
        </g>
        <g id="Icon" transform="translate(3.000000, 102.000000)" fill="#7A5EFF" fill-rule="nonzero">
            <path d="M3,3 L15,3 C15.5522847,3 16,3.44771525 16,4 C16,4.55228475 15.5522847,5 15,5 L3,5 C2.44771525,5 2,4.55228475 2,4 C2,3.44771525 2.44771525,3 3,3 L3,3 Z M18,0 L18,2 L0,2 L0,0 L18,0 L18,0 Z M12,6 L14,6 L14,20 L12,20 L12,6 L12,6 Z M4,6 L6,6 L6,20 L4,20 L4,6 L4,6 Z M8,6 L10,6 L10,20 L8,20 L8,6 Z" id="Shape"></path>
        </g>
        <g id="Icon-Copy-3" transform="translate(28.000000, 102.000000)" fill="#FFFFFF" fill-rule="nonzero">
            <path d="M3,3 L15,3 C15.5522847,3 16,3.44771525 16,4 C16,4.55228475 15.5522847,5 15,5 L3,5 C2.44771525,5 2,4.55228475 2,4 C2,3.44771525 2.44771525,3 3,3 L3,3 Z M18,0 L18,2 L0,2 L0,0 L18,0 L18,0 Z M12,6 L14,6 L14,20 L12,20 L12,6 L12,6 Z M4,6 L6,6 L6,20 L4,20 L4,6 L4,6 Z M8,6 L10,6 L10,20 L8,20 L8,6 Z" id="Shape"></path>
        </g>
        <g id="Icon" transform="translate(53.000000, 102.000000)" fill="#25303A" fill-rule="nonzero">
            <path d="M3,3 L15,3 C15.5522847,3 16,3.44771525 16,4 C16,4.55228475 15.5522847,5 15,5 L3,5 C2.44771525,5 2,4.55228475 2,4 C2,3.44771525 2.44771525,3 3,3 L3,3 Z M18,0 L18,2 L0,2 L0,0 L18,0 L18,0 Z M12,6 L14,6 L14,20 L12,20 L12,6 L12,6 Z M4,6 L6,6 L6,20 L4,20 L4,6 L4,6 Z M8,6 L10,6 L10,20 L8,20 L8,6 Z" id="Shape"></path>
        </g>
        <g id="Icon" transform="translate(3.000000, 128.000000)" fill="#7A5EFF" fill-rule="nonzero">
            <path d="M14,14 L12,14 L12,10 L14,10 L14,14 Z M10,14 L8,14 L8,4 L10,4 L10,14 Z M6,14 L4,14 L4,7 L6,7 L6,14 Z M16,0 L2,0 C0.89,0 0,0.89 0,2 L0,16 C0,17.1045695 0.8954305,18 2,18 L16,18 C17.1045695,18 18,17.1045695 18,16 L18,2 C18,0.89 17.1,0 16,0 Z" id="Shape"></path>
        </g>
        <g id="Icon-Copy-5" transform="translate(28.000000, 128.000000)" fill="#FFFFFF" fill-rule="nonzero">
            <path d="M14,14 L12,14 L12,10 L14,10 L14,14 Z M10,14 L8,14 L8,4 L10,4 L10,14 Z M6,14 L4,14 L4,7 L6,7 L6,14 Z M16,0 L2,0 C0.89,0 0,0.89 0,2 L0,16 C0,17.1045695 0.8954305,18 2,18 L16,18 C17.1045695,18 18,17.1045695 18,16 L18,2 C18,0.89 17.1,0 16,0 Z" id="Shape"></path>
        </g>
        <g id="Icon" transform="translate(53.000000, 128.000000)" fill="#25303A" fill-rule="nonzero">
            <path d="M14,14 L12,14 L12,10 L14,10 L14,14 Z M10,14 L8,14 L8,4 L10,4 L10,14 Z M6,14 L4,14 L4,7 L6,7 L6,14 Z M16,0 L2,0 C0.89,0 0,0.89 0,2 L0,16 C0,17.1045695 0.8954305,18 2,18 L16,18 C17.1045695,18 18,17.1045695 18,16 L18,2 C18,0.89 17.1,0 16,0 Z" id="Shape"></path>
        </g>
        <g id="Icon" transform="translate(1.000000, 51.000000)" fill="#7A5EFF" fill-rule="nonzero">
            <path d="M7.5,3.6 L5,5 L6.4,2.5 L5,0 L7.5,1.4 L10,0 L8.6,2.5 L10,5 L7.5,3.6 L7.5,3.6 Z M19.5,13.4 L22,12 L20.6,14.5 L22,17 L19.5,15.6 L17,17 L18.4,14.5 L17,12 L19.5,13.4 L19.5,13.4 Z M22,0 L20.6,2.5 L22,5 L19.5,3.6 L17,5 L18.4,2.5 L17,0 L19.5,1.4 L22,0 L22,0 Z M13.34,10.78 L15.78,8.34 L13.66,6.22 L11.22,8.66 L13.34,10.78 L13.34,10.78 Z M14.37,5.29 L16.71,7.63 C17.1,8 17.1,8.65 16.71,9.04 L5.04,20.71 C4.65,21.1 4,21.1 3.63,20.71 L1.29,18.37 C0.9,18 0.9,17.35 1.29,16.96 L12.96,5.29 C13.35,4.9 14,4.9 14.37,5.29 Z" id="Shape"></path>
        </g>
        <g id="Icon-Copy-6" transform="translate(26.000000, 51.000000)" fill="#FFFFFF" fill-rule="nonzero">
            <path d="M7.5,3.6 L5,5 L6.4,2.5 L5,0 L7.5,1.4 L10,0 L8.6,2.5 L10,5 L7.5,3.6 L7.5,3.6 Z M19.5,13.4 L22,12 L20.6,14.5 L22,17 L19.5,15.6 L17,17 L18.4,14.5 L17,12 L19.5,13.4 L19.5,13.4 Z M22,0 L20.6,2.5 L22,5 L19.5,3.6 L17,5 L18.4,2.5 L17,0 L19.5,1.4 L22,0 L22,0 Z M13.34,10.78 L15.78,8.34 L13.66,6.22 L11.22,8.66 L13.34,10.78 L13.34,10.78 Z M14.37,5.29 L16.71,7.63 C17.1,8 17.1,8.65 16.71,9.04 L5.04,20.71 C4.65,21.1 4,21.1 3.63,20.71 L1.29,18.37 C0.9,18 0.9,17.35 1.29,16.96 L12.96,5.29 C13.35,4.9 14,4.9 14.37,5.29 Z" id="Shape"></path>
        </g>
        <g id="Icon" transform="translate(51.000000, 51.000000)" fill="#25303A" fill-rule="nonzero">
            <path d="M7.5,3.6 L5,5 L6.4,2.5 L5,0 L7.5,1.4 L10,0 L8.6,2.5 L10,5 L7.5,3.6 L7.5,3.6 Z M19.5,13.4 L22,12 L20.6,14.5 L22,17 L19.5,15.6 L17,17 L18.4,14.5 L17,12 L19.5,13.4 L19.5,13.4 Z M22,0 L20.6,2.5 L22,5 L19.5,3.6 L17,5 L18.4,2.5 L17,0 L19.5,1.4 L22,0 L22,0 Z M13.34,10.78 L15.78,8.34 L13.66,6.22 L11.22,8.66 L13.34,10.78 L13.34,10.78 Z M14.37,5.29 L16.71,7.63 C17.1,8 17.1,8.65 16.71,9.04 L5.04,20.71 C4.65,21.1 4,21.1 3.63,20.71 L1.29,18.37 C0.9,18 0.9,17.35 1.29,16.96 L12.96,5.29 C13.35,4.9 14,4.9 14.37,5.29 Z" id="Shape"></path>
        </g>
        <g id="Icon" transform="translate(2.000000, 154.000000)" fill="#FFFFFF" fill-rule="nonzero">
            <path d="M18,4 L10,9 L2,4 L2,2 L10,7 L18,2 L18,4 Z M18,0 L2,0 C0.89,0 0,0.89 0,2 L0,14 C0,15.1045695 0.8954305,16 2,16 L18,16 C19.1045695,16 20,15.1045695 20,14 L20,2 C20,0.89 19.1,0 18,0 Z" id="Shape"></path>
        </g>
        <g id="Icon" transform="translate(27.000000, 154.000000)" fill="#7A5EFF" fill-rule="nonzero">
            <path d="M18,4 L10,9 L2,4 L2,2 L10,7 L18,2 L18,4 Z M18,0 L2,0 C0.89,0 0,0.89 0,2 L0,14 C0,15.1045695 0.8954305,16 2,16 L18,16 C19.1045695,16 20,15.1045695 20,14 L20,2 C20,0.89 19.1,0 18,0 Z" id="Shape"></path>
        </g>
        <g id="Icon" transform="translate(52.000000, 154.000000)" fill="#25303A" fill-rule="nonzero">
            <path d="M18,4 L10,9 L2,4 L2,2 L10,7 L18,2 L18,4 Z M18,0 L2,0 C0.89,0 0,0.89 0,2 L0,14 C0,15.1045695 0.8954305,16 2,16 L18,16 C19.1045695,16 20,15.1045695 20,14 L20,2 C20,0.89 19.1,0 18,0 Z" id="Shape"></path>
        </g>
        <g id="Icon" transform="translate(2.000000, 179.000000)" fill="#7A5EFF" fill-rule="nonzero">
            <path d="M3,8.8817842e-16 L17,8.8817842e-16 C18.6568542,0 20,1.34314575 20,3 L20,7 L13,7 L13,6 L7,6 L7,7 L0,7 L0,3 C-8.8817842e-16,1.34314575 1.34314575,0 3,0 L3,8.8817842e-16 Z M9,7 L11,7 L11,9 L9,9 L9,7 L9,7 Z M0,8 L7,8 L7,9 L9,11 L11,11 L13,9 L13,8 L20,8 L20,16 L0,16 L0,8 Z" id="Shape"></path>
        </g>
        <g id="Icon" transform="translate(27.000000, 179.000000)" fill="#FFFFFF" fill-rule="nonzero">
            <path d="M3,8.8817842e-16 L17,8.8817842e-16 C18.6568542,0 20,1.34314575 20,3 L20,7 L13,7 L13,6 L7,6 L7,7 L0,7 L0,3 C-8.8817842e-16,1.34314575 1.34314575,0 3,0 L3,8.8817842e-16 Z M9,7 L11,7 L11,9 L9,9 L9,7 L9,7 Z M0,8 L7,8 L7,9 L9,11 L11,11 L13,9 L13,8 L20,8 L20,16 L0,16 L0,8 Z" id="Shape"></path>
        </g>
        <g id="Icon" transform="translate(52.000000, 179.000000)" fill="#25303A" fill-rule="nonzero">
            <path d="M3,8.8817842e-16 L17,8.8817842e-16 C18.6568542,0 20,1.34314575 20,3 L20,7 L13,7 L13,6 L7,6 L7,7 L0,7 L0,3 C-8.8817842e-16,1.34314575 1.34314575,0 3,0 L3,8.8817842e-16 Z M9,7 L11,7 L11,9 L9,9 L9,7 L9,7 Z M0,8 L7,8 L7,9 L9,11 L11,11 L13,9 L13,8 L20,8 L20,16 L0,16 L0,8 Z" id="Shape"></path>
        </g>
        <g id="Icon" transform="translate(2.000000, 77.000000)" fill="#7A5EFF" fill-rule="nonzero">
            <polygon id="Shape" points="20 7.24 12.81 6.63 10 0 7.19 6.63 0 7.24 5.45 11.97 3.82 19 10 15.27 16.18 19 14.54 11.97"></polygon>
        </g>
        <g id="Icon" transform="translate(52.000000, 77.000000)" fill="#25303A" fill-rule="nonzero">
            <polygon id="Shape" points="20 7.24 12.81 6.63 10 0 7.19 6.63 0 7.24 5.45 11.97 3.82 19 10 15.27 16.18 19 14.54 11.97"></polygon>
        </g>
        <g id="Icon" transform="translate(27.000000, 77.000000)" fill="#FFFFFF" fill-rule="nonzero">
            <path d="M10,13.39 L6.24,15.66 L7.23,11.38 L3.91,8.5 L8.29,8.13 L10,4.09 L11.71,8.13 L16.09,8.5 L12.77,11.38 L13.76,15.66 L10,13.39 Z M20,7.24 L12.81,6.63 L10,0 L7.19,6.63 L0,7.24 L5.45,11.97 L3.82,19 L10,15.27 L16.18,19 L14.54,11.97 L20,7.24 Z" id="Shape"></path>
        </g>
        <g id="Icon" transform="translate(3.000000, 3.000000)" fill="#7A5EFF" fill-rule="nonzero">
            <path d="M0.81,10.12 L3.64,7.29 L6.17,6.79 C9.39,2.41 15.55,0.22 17.78,0.22 C17.78,2.45 15.59,8.61 11.21,11.83 L10.71,14.36 L7.88,17.19 L7.17,13.66 C5.76,13.66 5.76,13.66 5.05,12.95 C4.34,12.24 4.34,12.24 4.34,10.83 L0.81,10.12 L0.81,10.12 Z M3.64,12.95 L5.05,14.36 L2.39,17.03 L0.97,17.03 L0.97,15.61 L3.64,12.95 L3.64,12.95 Z M2.22,11.54 L3.46,11.71 L1,14.16 L1,12.74 L2.22,11.54 L2.22,11.54 Z M6.29,14.54 L6.46,15.78 L5.26,17 L3.84,17 L6.29,14.54 L6.29,14.54 Z M11,5.5 C10.1715729,5.5 9.5,6.17157288 9.5,7 C9.5,7.82842712 10.1715729,8.5 11,8.5 C11.8284271,8.5 12.5,7.82842712 12.5,7 C12.5,6.17157288 11.8284271,5.5 11,5.5 Z" id="Shape"></path>
        </g>
        <g id="Icon" transform="translate(28.000000, 3.000000)" fill="#FFFFFF" fill-rule="nonzero">
            <path d="M0.81,10.12 L3.64,7.29 L6.17,6.79 C9.39,2.41 15.55,0.22 17.78,0.22 C17.78,2.45 15.59,8.61 11.21,11.83 L10.71,14.36 L7.88,17.19 L7.17,13.66 C5.76,13.66 5.76,13.66 5.05,12.95 C4.34,12.24 4.34,12.24 4.34,10.83 L0.81,10.12 L0.81,10.12 Z M3.64,12.95 L5.05,14.36 L2.39,17.03 L0.97,17.03 L0.97,15.61 L3.64,12.95 L3.64,12.95 Z M2.22,11.54 L3.46,11.71 L1,14.16 L1,12.74 L2.22,11.54 L2.22,11.54 Z M6.29,14.54 L6.46,15.78 L5.26,17 L3.84,17 L6.29,14.54 L6.29,14.54 Z M11,5.5 C10.1715729,5.5 9.5,6.17157288 9.5,7 C9.5,7.82842712 10.1715729,8.5 11,8.5 C11.8284271,8.5 12.5,7.82842712 12.5,7 C12.5,6.17157288 11.8284271,5.5 11,5.5 Z" id="Shape"></path>
        </g>
        <g id="Icon" transform="translate(53.000000, 3.000000)" fill="#25303A" fill-rule="nonzero">
            <path d="M0.81,10.12 L3.64,7.29 L6.17,6.79 C9.39,2.41 15.55,0.22 17.78,0.22 C17.78,2.45 15.59,8.61 11.21,11.83 L10.71,14.36 L7.88,17.19 L7.17,13.66 C5.76,13.66 5.76,13.66 5.05,12.95 C4.34,12.24 4.34,12.24 4.34,10.83 L0.81,10.12 L0.81,10.12 Z M3.64,12.95 L5.05,14.36 L2.39,17.03 L0.97,17.03 L0.97,15.61 L3.64,12.95 L3.64,12.95 Z M2.22,11.54 L3.46,11.71 L1,14.16 L1,12.74 L2.22,11.54 L2.22,11.54 Z M6.29,14.54 L6.46,15.78 L5.26,17 L3.84,17 L6.29,14.54 L6.29,14.54 Z M11,5.5 C10.1715729,5.5 9.5,6.17157288 9.5,7 C9.5,7.82842712 10.1715729,8.5 11,8.5 C11.8284271,8.5 12.5,7.82842712 12.5,7 C12.5,6.17157288 11.8284271,5.5 11,5.5 Z" id="Shape"></path>
        </g>
        <g id="Icon" transform="translate(0.000000, 199.000000)">
            <rect id="Margin" fill-opacity="0" fill="#FFFFFF" x="0" y="0" width="24" height="24"></rect>
            <path d="M11.43,10.94 C11.2,11.68 10.87,12.47 10.42,13.34 C10.22,13.72 10,14.08 9.92,14.38 L10.03,14.34 L10.03,14.34 C11.3,13.85 12.5,13.57 13.37,13.41 C13.22,13.31 13.08,13.2 12.96,13.09 C12.36,12.58 11.84,11.84 11.43,10.94 L11.43,10.94 Z M17.91,14.75 C17.74,14.94 17.44,15.05 17,15.05 C16.24,15.05 15,14.82 14,14.31 C12.28,14.5 11,14.73 9.97,15.06 C9.92,15.08 9.86,15.1 9.79,15.13 C8.55,17.25 7.63,18.2 6.82,18.2 C6.66,18.2 6.5,18.16 6.38,18.09 L5.9,17.78 L5.87,17.73 C5.8,17.55 5.78,17.38 5.82,17.19 C5.93,16.66 6.5,15.82 7.7,15.07 C7.89,14.93 8.19,14.77 8.59,14.58 C8.89,14.06 9.21,13.45 9.55,12.78 C10.06,11.75 10.38,10.73 10.63,9.85 L10.63,9.84 C10.26,8.63 10.04,7.9 10.41,6.57 C10.5,6.19 10.83,5.8 11.2,5.8 L11.44,5.8 C11.67,5.8 11.89,5.88 12.05,6.04 C12.71,6.7 12.4,8.31 12.07,9.64 C12.05,9.7 12.04,9.75 12.03,9.78 C12.43,10.91 13,11.82 13.63,12.34 C13.89,12.54 14.18,12.74 14.5,12.92 C14.95,12.87 15.38,12.85 15.79,12.85 C17.03,12.85 17.78,13.07 18.07,13.54 C18.17,13.7 18.22,13.89 18.19,14.09 C18.18,14.34 18.09,14.57 17.91,14.75 L17.91,14.75 Z M19,3 L5,3 C3.89,3 3,3.89 3,5 L3,19 C3,20.1045695 3.8954305,21 5,21 L19,21 C20.1045695,21 21,20.1045695 21,19 L21,5 C21,3.89 20.1,3 19,3 L19,3 Z M17.5,14.04 C17.4,13.94 17,13.69 15.6,13.69 C15.53,13.69 15.46,13.69 15.37,13.79 C16.1,14.11 16.81,14.3 17.27,14.3 C17.34,14.3 17.4,14.29 17.46,14.28 L17.5,14.28 C17.55,14.26 17.58,14.25 17.59,14.15 C17.57,14.12 17.55,14.08 17.5,14.04 L17.5,14.04 Z M8.33,15.5 C8.12,15.62 7.95,15.73 7.85,15.81 C7.14,16.46 6.69,17.12 6.64,17.5 C7.09,17.35 7.68,16.69 8.33,15.5 L8.33,15.5 Z M11.35,8.59 L11.4,8.55 C11.47,8.23 11.5,7.95 11.56,7.73 L11.59,7.57 C11.69,7 11.67,6.71 11.5,6.47 L11.35,6.42 C11.33,6.45 11.3,6.5 11.28,6.54 C11.11,6.96 11.12,7.69 11.35,8.59 Z" id="Shape" fill="#7A5EFF" fill-rule="nonzero"></path>
        </g>
        <g id="Icon" transform="translate(25.000000, 199.000000)" fill="#FFFFFF">
            <rect id="Margin" fill-opacity="0" x="0" y="0" width="24" height="24"></rect>
            <path d="M11.43,10.94 C11.2,11.68 10.87,12.47 10.42,13.34 C10.22,13.72 10,14.08 9.92,14.38 L10.03,14.34 L10.03,14.34 C11.3,13.85 12.5,13.57 13.37,13.41 C13.22,13.31 13.08,13.2 12.96,13.09 C12.36,12.58 11.84,11.84 11.43,10.94 L11.43,10.94 Z M17.91,14.75 C17.74,14.94 17.44,15.05 17,15.05 C16.24,15.05 15,14.82 14,14.31 C12.28,14.5 11,14.73 9.97,15.06 C9.92,15.08 9.86,15.1 9.79,15.13 C8.55,17.25 7.63,18.2 6.82,18.2 C6.66,18.2 6.5,18.16 6.38,18.09 L5.9,17.78 L5.87,17.73 C5.8,17.55 5.78,17.38 5.82,17.19 C5.93,16.66 6.5,15.82 7.7,15.07 C7.89,14.93 8.19,14.77 8.59,14.58 C8.89,14.06 9.21,13.45 9.55,12.78 C10.06,11.75 10.38,10.73 10.63,9.85 L10.63,9.84 C10.26,8.63 10.04,7.9 10.41,6.57 C10.5,6.19 10.83,5.8 11.2,5.8 L11.44,5.8 C11.67,5.8 11.89,5.88 12.05,6.04 C12.71,6.7 12.4,8.31 12.07,9.64 C12.05,9.7 12.04,9.75 12.03,9.78 C12.43,10.91 13,11.82 13.63,12.34 C13.89,12.54 14.18,12.74 14.5,12.92 C14.95,12.87 15.38,12.85 15.79,12.85 C17.03,12.85 17.78,13.07 18.07,13.54 C18.17,13.7 18.22,13.89 18.19,14.09 C18.18,14.34 18.09,14.57 17.91,14.75 L17.91,14.75 Z M19,3 L5,3 C3.89,3 3,3.89 3,5 L3,19 C3,20.1045695 3.8954305,21 5,21 L19,21 C20.1045695,21 21,20.1045695 21,19 L21,5 C21,3.89 20.1,3 19,3 L19,3 Z M17.5,14.04 C17.4,13.94 17,13.69 15.6,13.69 C15.53,13.69 15.46,13.69 15.37,13.79 C16.1,14.11 16.81,14.3 17.27,14.3 C17.34,14.3 17.4,14.29 17.46,14.28 L17.5,14.28 C17.55,14.26 17.58,14.25 17.59,14.15 C17.57,14.12 17.55,14.08 17.5,14.04 L17.5,14.04 Z M8.33,15.5 C8.12,15.62 7.95,15.73 7.85,15.81 C7.14,16.46 6.69,17.12 6.64,17.5 C7.09,17.35 7.68,16.69 8.33,15.5 L8.33,15.5 Z M11.35,8.59 L11.4,8.55 C11.47,8.23 11.5,7.95 11.56,7.73 L11.59,7.57 C11.69,7 11.67,6.71 11.5,6.47 L11.35,6.42 C11.33,6.45 11.3,6.5 11.28,6.54 C11.11,6.96 11.12,7.69 11.35,8.59 Z" id="Shape" fill-rule="nonzero"></path>
        </g>
        <g id="Icon" transform="translate(50.000000, 199.000000)">
            <rect id="Margin" fill-opacity="0" fill="#FFFFFF" x="0" y="0" width="24" height="24"></rect>
            <path d="M11.43,10.94 C11.2,11.68 10.87,12.47 10.42,13.34 C10.22,13.72 10,14.08 9.92,14.38 L10.03,14.34 L10.03,14.34 C11.3,13.85 12.5,13.57 13.37,13.41 C13.22,13.31 13.08,13.2 12.96,13.09 C12.36,12.58 11.84,11.84 11.43,10.94 L11.43,10.94 Z M17.91,14.75 C17.74,14.94 17.44,15.05 17,15.05 C16.24,15.05 15,14.82 14,14.31 C12.28,14.5 11,14.73 9.97,15.06 C9.92,15.08 9.86,15.1 9.79,15.13 C8.55,17.25 7.63,18.2 6.82,18.2 C6.66,18.2 6.5,18.16 6.38,18.09 L5.9,17.78 L5.87,17.73 C5.8,17.55 5.78,17.38 5.82,17.19 C5.93,16.66 6.5,15.82 7.7,15.07 C7.89,14.93 8.19,14.77 8.59,14.58 C8.89,14.06 9.21,13.45 9.55,12.78 C10.06,11.75 10.38,10.73 10.63,9.85 L10.63,9.84 C10.26,8.63 10.04,7.9 10.41,6.57 C10.5,6.19 10.83,5.8 11.2,5.8 L11.44,5.8 C11.67,5.8 11.89,5.88 12.05,6.04 C12.71,6.7 12.4,8.31 12.07,9.64 C12.05,9.7 12.04,9.75 12.03,9.78 C12.43,10.91 13,11.82 13.63,12.34 C13.89,12.54 14.18,12.74 14.5,12.92 C14.95,12.87 15.38,12.85 15.79,12.85 C17.03,12.85 17.78,13.07 18.07,13.54 C18.17,13.7 18.22,13.89 18.19,14.09 C18.18,14.34 18.09,14.57 17.91,14.75 L17.91,14.75 Z M19,3 L5,3 C3.89,3 3,3.89 3,5 L3,19 C3,20.1045695 3.8954305,21 5,21 L19,21 C20.1045695,21 21,20.1045695 21,19 L21,5 C21,3.89 20.1,3 19,3 L19,3 Z M17.5,14.04 C17.4,13.94 17,13.69 15.6,13.69 C15.53,13.69 15.46,13.69 15.37,13.79 C16.1,14.11 16.81,14.3 17.27,14.3 C17.34,14.3 17.4,14.29 17.46,14.28 L17.5,14.28 C17.55,14.26 17.58,14.25 17.59,14.15 C17.57,14.12 17.55,14.08 17.5,14.04 L17.5,14.04 Z M8.33,15.5 C8.12,15.62 7.95,15.73 7.85,15.81 C7.14,16.46 6.69,17.12 6.64,17.5 C7.09,17.35 7.68,16.69 8.33,15.5 L8.33,15.5 Z M11.35,8.59 L11.4,8.55 C11.47,8.23 11.5,7.95 11.56,7.73 L11.59,7.57 C11.69,7 11.67,6.71 11.5,6.47 L11.35,6.42 C11.33,6.45 11.3,6.5 11.28,6.54 C11.11,6.96 11.12,7.69 11.35,8.59 Z" id="Shape" fill="#25303A" fill-rule="nonzero"></path>
        </g>
    </g>
</svg>