<?xml version="1.0" encoding="UTF-8"?>
<svg width="38px" height="64px" viewBox="0 0 38 64" version="1.1" xmlns="http://www.w3.org/2000/svg" xmlns:xlink="http://www.w3.org/1999/xlink">
    <!-- Generator: Sketch 50 (54983) - http://www.bohemiancoding.com/sketch -->
    <title>icons_sm@2x</title>
    <desc>Created with Sketch.</desc>
    <defs></defs>
    <g id="icons_sm@2x" stroke="none" stroke-width="1" fill="none" fill-rule="evenodd">
        <g id="Icon" transform="translate(0.000000, 15.000000)" fill="#25303A" fill-rule="nonzero">
            <path d="M1.5,0 L10.5,0 C10.7761424,0 11,0.223857625 11,0.5 L11,6 C11,6.27614237 10.7761424,6.5 10.5,6.5 L11,6.5 L12,8 L12,8.5 L0,8.5 L0,8 L1,6.5 L1.5,6.5 C1.22385763,6.5 1,6.27614237 1,6 L1,0.5 C1,0.223857625 1.22385763,0 1.5,0 L1.5,0 Z M2,1 L2,5.5 L10,5.5 L10,1 L2,1 Z" id="Shape"></path>
        </g>
        <g id="Icon" transform="translate(26.000000, 15.000000)" fill="#FFFFFF" fill-rule="nonzero">
            <path d="M1.5,0 L10.5,0 C10.7761424,0 11,0.223857625 11,0.5 L11,6 C11,6.27614237 10.7761424,6.5 10.5,6.5 L11,6.5 L12,8 L12,8.5 L0,8.5 L0,8 L1,6.5 L1.5,6.5 C1.22385763,6.5 1,6.27614237 1,6 L1,0.5 C1,0.223857625 1.22385763,0 1.5,0 L1.5,0 Z M2,1 L2,5.5 L10,5.5 L10,1 L2,1 Z" id="Shape"></path>
        </g>
        <g id="Icon-Copy" transform="translate(13.000000, 15.000000)" fill="#7B5FFF" fill-rule="nonzero">
            <path d="M1.5,0 L10.5,0 C10.7761424,0 11,0.223857625 11,0.5 L11,6 C11,6.27614237 10.7761424,6.5 10.5,6.5 L11,6.5 L12,8 L12,8.5 L0,8.5 L0,8 L1,6.5 L1.5,6.5 C1.22385763,6.5 1,6.27614237 1,6 L1,0.5 C1,0.223857625 1.22385763,0 1.5,0 L1.5,0 Z M2,1 L2,5.5 L10,5.5 L10,1 L2,1 Z" id="Shape"></path>
        </g>
        <g id="Icon" transform="translate(0.000000, 28.000000)" fill="#25303A" fill-rule="nonzero">
            <path d="M11.23,1 C10.845,1.175 10.43,1.29 10,1.345 C10.44,1.08 10.78,0.66 10.94,0.155 C10.525,0.405 10.065,0.58 9.58,0.68 C9.185,0.25 8.63,0 8,0 C6.825,0 5.865,0.96 5.865,2.145 C5.865,2.315 5.885,2.48 5.92,2.635 C4.14,2.545 2.555,1.69 1.5,0.395 C1.315,0.71 1.21,1.08 1.21,1.47 C1.21,2.215 1.585,2.875 2.165,3.25 C1.81,3.25 1.48,3.15 1.19,3 C1.19,3 1.19,3 1.19,3.015 C1.19,4.055 1.93,4.925 2.91,5.12 C2.73,5.17 2.54,5.195 2.345,5.195 C2.21,5.195 2.075,5.18 1.945,5.155 C2.215,6 3,6.63 3.945,6.645 C3.215,7.225 2.29,7.565 1.28,7.565 C1.11,7.565 0.94,7.555 0.77,7.535 C1.72,8.145 2.85,8.5 4.06,8.5 C8,8.5 10.165,5.23 10.165,2.395 C10.165,2.3 10.165,2.21 10.16,2.115 C10.58,1.815 10.94,1.435 11.23,1 Z" id="Shape"></path>
        </g>
        <g id="Icon" transform="translate(26.000000, 28.000000)" fill="#FFFFFF" fill-rule="nonzero">
            <path d="M11.23,1 C10.845,1.175 10.43,1.29 10,1.345 C10.44,1.08 10.78,0.66 10.94,0.155 C10.525,0.405 10.065,0.58 9.58,0.68 C9.185,0.25 8.63,0 8,0 C6.825,0 5.865,0.96 5.865,2.145 C5.865,2.315 5.885,2.48 5.92,2.635 C4.14,2.545 2.555,1.69 1.5,0.395 C1.315,0.71 1.21,1.08 1.21,1.47 C1.21,2.215 1.585,2.875 2.165,3.25 C1.81,3.25 1.48,3.15 1.19,3 C1.19,3 1.19,3 1.19,3.015 C1.19,4.055 1.93,4.925 2.91,5.12 C2.73,5.17 2.54,5.195 2.345,5.195 C2.21,5.195 2.075,5.18 1.945,5.155 C2.215,6 3,6.63 3.945,6.645 C3.215,7.225 2.29,7.565 1.28,7.565 C1.11,7.565 0.94,7.555 0.77,7.535 C1.72,8.145 2.85,8.5 4.06,8.5 C8,8.5 10.165,5.23 10.165,2.395 C10.165,2.3 10.165,2.21 10.16,2.115 C10.58,1.815 10.94,1.435 11.23,1 Z" id="Shape"></path>
        </g>
        <g id="Icon-Copy-2" transform="translate(13.000000, 28.000000)" fill="#7B5FFF" fill-rule="nonzero">
            <path d="M11.23,1 C10.845,1.175 10.43,1.29 10,1.345 C10.44,1.08 10.78,0.66 10.94,0.155 C10.525,0.405 10.065,0.58 9.58,0.68 C9.185,0.25 8.63,0 8,0 C6.825,0 5.865,0.96 5.865,2.145 C5.865,2.315 5.885,2.48 5.92,2.635 C4.14,2.545 2.555,1.69 1.5,0.395 C1.315,0.71 1.21,1.08 1.21,1.47 C1.21,2.215 1.585,2.875 2.165,3.25 C1.81,3.25 1.48,3.15 1.19,3 C1.19,3 1.19,3 1.19,3.015 C1.19,4.055 1.93,4.925 2.91,5.12 C2.73,5.17 2.54,5.195 2.345,5.195 C2.21,5.195 2.075,5.18 1.945,5.155 C2.215,6 3,6.63 3.945,6.645 C3.215,7.225 2.29,7.565 1.28,7.565 C1.11,7.565 0.94,7.555 0.77,7.535 C1.72,8.145 2.85,8.5 4.06,8.5 C8,8.5 10.165,5.23 10.165,2.395 C10.165,2.3 10.165,2.21 10.16,2.115 C10.58,1.815 10.94,1.435 11.23,1 Z" id="Shape"></path>
        </g>
        <g id="Icon" transform="translate(1.000000, 41.000000)" fill="#25303A" fill-rule="nonzero">
            <path d="M9.19,2.265 C9.27,2.065 9.53,1.27 9.105,0.195 C9.105,0.195 8.45,-5.2846616e-14 6.955,1 C6.33,0.835 5.665,0.81 5,0.81 C4.34,0.81 3.67,0.835 3.045,1 C1.55,-0.015 0.895,0.195 0.895,0.195 C0.47,1.27 0.73,2.065 0.815,2.265 C0.305,2.81 0,3.5 0,4.36 C0,7.58 2.08,8.305 5,8.305 C7.895,8.305 10,7.58 10,4.36 C10,3.5 9.695,2.81 9.19,2.265 L9.19,2.265 Z M5,7.69 C2.94,7.69 1.265,7.595 1.265,5.595 C1.265,5.12 1.5,4.67 1.9,4.305 C2.57,3.69 3.715,4.015 5,4.015 C6.295,4.015 7.425,3.69 8.1,4.305 C8.5,4.67 8.75,5.115 8.75,5.595 C8.75,7.59 7.065,7.69 5,7.69 L5,7.69 Z M3.43,4.56 C3.02,4.56 2.68,5.06 2.68,5.67 C2.68,6.285 3.02,6.79 3.43,6.79 C3.845,6.79 4.18,6.29 4.18,5.67 C4.18,5.055 3.845,4.56 3.43,4.56 L3.43,4.56 Z M6.57,4.56 C6.155,4.56 5.82,5.055 5.82,5.67 C5.82,6.29 6.155,6.79 6.57,6.79 C6.98,6.79 7.32,6.29 7.32,5.67 C7.32,5.055 7,4.56 6.57,4.56 Z" id="Shape"></path>
        </g>
        <g id="Icon" transform="translate(27.000000, 41.000000)" fill="#FFFFFF" fill-rule="nonzero">
            <path d="M9.19,2.265 C9.27,2.065 9.53,1.27 9.105,0.195 C9.105,0.195 8.45,-5.2846616e-14 6.955,1 C6.33,0.835 5.665,0.81 5,0.81 C4.34,0.81 3.67,0.835 3.045,1 C1.55,-0.015 0.895,0.195 0.895,0.195 C0.47,1.27 0.73,2.065 0.815,2.265 C0.305,2.81 0,3.5 0,4.36 C0,7.58 2.08,8.305 5,8.305 C7.895,8.305 10,7.58 10,4.36 C10,3.5 9.695,2.81 9.19,2.265 L9.19,2.265 Z M5,7.69 C2.94,7.69 1.265,7.595 1.265,5.595 C1.265,5.12 1.5,4.67 1.9,4.305 C2.57,3.69 3.715,4.015 5,4.015 C6.295,4.015 7.425,3.69 8.1,4.305 C8.5,4.67 8.75,5.115 8.75,5.595 C8.75,7.59 7.065,7.69 5,7.69 L5,7.69 Z M3.43,4.56 C3.02,4.56 2.68,5.06 2.68,5.67 C2.68,6.285 3.02,6.79 3.43,6.79 C3.845,6.79 4.18,6.29 4.18,5.67 C4.18,5.055 3.845,4.56 3.43,4.56 L3.43,4.56 Z M6.57,4.56 C6.155,4.56 5.82,5.055 5.82,5.67 C5.82,6.29 6.155,6.79 6.57,6.79 C6.98,6.79 7.32,6.29 7.32,5.67 C7.32,5.055 7,4.56 6.57,4.56 Z" id="Shape"></path>
        </g>
        <g id="Icon-Copy-3" transform="translate(14.000000, 41.000000)" fill="#7B5FFF" fill-rule="nonzero">
            <path d="M9.19,2.265 C9.27,2.065 9.53,1.27 9.105,0.195 C9.105,0.195 8.45,-5.2846616e-14 6.955,1 C6.33,0.835 5.665,0.81 5,0.81 C4.34,0.81 3.67,0.835 3.045,1 C1.55,-0.015 0.895,0.195 0.895,0.195 C0.47,1.27 0.73,2.065 0.815,2.265 C0.305,2.81 0,3.5 0,4.36 C0,7.58 2.08,8.305 5,8.305 C7.895,8.305 10,7.58 10,4.36 C10,3.5 9.695,2.81 9.19,2.265 L9.19,2.265 Z M5,7.69 C2.94,7.69 1.265,7.595 1.265,5.595 C1.265,5.12 1.5,4.67 1.9,4.305 C2.57,3.69 3.715,4.015 5,4.015 C6.295,4.015 7.425,3.69 8.1,4.305 C8.5,4.67 8.75,5.115 8.75,5.595 C8.75,7.59 7.065,7.69 5,7.69 L5,7.69 Z M3.43,4.56 C3.02,4.56 2.68,5.06 2.68,5.67 C2.68,6.285 3.02,6.79 3.43,6.79 C3.845,6.79 4.18,6.29 4.18,5.67 C4.18,5.055 3.845,4.56 3.43,4.56 L3.43,4.56 Z M6.57,4.56 C6.155,4.56 5.82,5.055 5.82,5.67 C5.82,6.29 6.155,6.79 6.57,6.79 C6.98,6.79 7.32,6.29 7.32,5.67 C7.32,5.055 7,4.56 6.57,4.56 Z" id="Shape"></path>
        </g>
        <g id="Icon" transform="translate(1.000000, 2.000000)" fill="#25303A" fill-rule="nonzero">
            <path d="M9,0 L1,0 C0.44771525,0 0,0.44771525 0,1 L0,7 C0,7.55228475 0.44771525,8 1,8 L9,8 C9.55228475,8 10,7.55228475 10,7 L10,1 C10,0.44771525 9.55228475,0 9,0 L9,0 Z M9,7 L1,7 L1,2 L5,4.5 L9,2 L9,7 L9,7 Z M9,1 L5,3.5 L1,1 L1,1 L9,1 L9,1 Z" id="Shape"></path>
        </g>
        <g id="Icon" transform="translate(27.000000, 2.000000)" fill="#FFFFFF" fill-rule="nonzero">
            <path d="M9,0 L1,0 C0.44771525,0 0,0.44771525 0,1 L0,7 C0,7.55228475 0.44771525,8 1,8 L9,8 C9.55228475,8 10,7.55228475 10,7 L10,1 C10,0.44771525 9.55228475,0 9,0 L9,0 Z M9,7 L1,7 L1,2 L5,4.5 L9,2 L9,7 L9,7 Z M9,1 L5,3.5 L1,1 L1,1 L9,1 L9,1 Z" id="Shape"></path>
        </g>
        <g id="Icon-Copy-4" transform="translate(14.000000, 2.000000)" fill="#7B5FFF" fill-rule="nonzero">
            <path d="M9,0 L1,0 C0.44771525,0 0,0.44771525 0,1 L0,7 C0,7.55228475 0.44771525,8 1,8 L9,8 C9.55228475,8 10,7.55228475 10,7 L10,1 C10,0.44771525 9.55228475,0 9,0 L9,0 Z M9,7 L1,7 L1,2 L5,4.5 L9,2 L9,7 L9,7 Z M9,1 L5,3.5 L1,1 L1,1 L9,1 L9,1 Z" id="Shape"></path>
        </g>
        <g id="Icon" transform="translate(1.000000, 52.000000)" fill="#25303A" fill-rule="nonzero">
            <path d="M9.5,9.5 L7.5,9.5 L7.5,6.125 C7.5,5.595 6.905,5.155 6.375,5.155 C5.845,5.155 5.5,5.595 5.5,6.125 L5.5,9.5 L3.5,9.5 L3.5,3.5 L5.5,3.5 L5.5,4.5 C5.83,3.965 6.68,3.62 7.25,3.62 C8.5,3.62 9.5,4.64 9.5,5.875 L9.5,9.5 L9.5,9.5 Z M2.5,9.5 L0.5,9.5 L0.5,3.5 L2.5,3.5 L2.5,9.5 L2.5,9.5 Z M1.5,0.5 C2.05228475,0.5 2.5,0.94771525 2.5,1.5 C2.5,2.05228475 2.05228475,2.5 1.5,2.5 C0.94771525,2.5 0.5,2.05228475 0.5,1.5 C0.5,0.94771525 0.94771525,0.5 1.5,0.5 Z" id="Shape"></path>
        </g>
        <g id="Icon" transform="translate(14.000000, 52.000000)" fill="#7B5FFF" fill-rule="nonzero">
            <path d="M9.5,9.5 L7.5,9.5 L7.5,6.125 C7.5,5.595 6.905,5.155 6.375,5.155 C5.845,5.155 5.5,5.595 5.5,6.125 L5.5,9.5 L3.5,9.5 L3.5,3.5 L5.5,3.5 L5.5,4.5 C5.83,3.965 6.68,3.62 7.25,3.62 C8.5,3.62 9.5,4.64 9.5,5.875 L9.5,9.5 L9.5,9.5 Z M2.5,9.5 L0.5,9.5 L0.5,3.5 L2.5,3.5 L2.5,9.5 L2.5,9.5 Z M1.5,0.5 C2.05228475,0.5 2.5,0.94771525 2.5,1.5 C2.5,2.05228475 2.05228475,2.5 1.5,2.5 C0.94771525,2.5 0.5,2.05228475 0.5,1.5 C0.5,0.94771525 0.94771525,0.5 1.5,0.5 Z" id="Shape"></path>
        </g>
        <g id="Icon" transform="translate(27.000000, 52.000000)" fill="#FFFFFF" fill-rule="nonzero">
            <path d="M9.5,9.5 L7.5,9.5 L7.5,6.125 C7.5,5.595 6.905,5.155 6.375,5.155 C5.845,5.155 5.5,5.595 5.5,6.125 L5.5,9.5 L3.5,9.5 L3.5,3.5 L5.5,3.5 L5.5,4.5 C5.83,3.965 6.68,3.62 7.25,3.62 C8.5,3.62 9.5,4.64 9.5,5.875 L9.5,9.5 L9.5,9.5 Z M2.5,9.5 L0.5,9.5 L0.5,3.5 L2.5,3.5 L2.5,9.5 L2.5,9.5 Z M1.5,0.5 C2.05228475,0.5 2.5,0.94771525 2.5,1.5 C2.5,2.05228475 2.05228475,2.5 1.5,2.5 C0.94771525,2.5 0.5,2.05228475 0.5,1.5 C0.5,0.94771525 0.94771525,0.5 1.5,0.5 Z" id="Shape"></path>
        </g>
    </g>
</svg>