<?xml version="1.0" encoding="UTF-8"?>
<svg width="336px" height="70px" viewBox="0 0 336 70" version="1.1" xmlns="http://www.w3.org/2000/svg" xmlns:xlink="http://www.w3.org/1999/xlink">
    <!-- Generator: Sketch 50 (54983) - http://www.bohemiancoding.com/sketch -->
    <title>murphyO@2x</title>
    <desc>Created with Sketch.</desc>
    <defs>
        <linearGradient x1="-1.11022302e-14%" y1="50%" x2="100%" y2="50%" id="linearGradient-1">
            <stop stop-color="#FFFFFF" offset="0%"></stop>
            <stop stop-color="#F6F6F6" offset="100%"></stop>
        </linearGradient>
    </defs>
    <g id="murphyO@2x" stroke="none" stroke-width="1" fill="none" fill-rule="evenodd">
        <g id="Group-2">
            <g id="Group" fill="#7B5FFF">
                <path d="M91.3378441,39.9974607 C81.2265072,40.1494682 71,33.4767498 71,19.9793055 C71,6.50976461 81.2265072,-0.149159224 91.3378441,0.00253400336 L91.3378441,12.7167291 C91.2658037,12.7153535 91.1948906,12.7147055 91.1252176,12.7147055 C88.4604548,12.7147055 83.9942861,13.6594788 83.9942861,19.9793055 C83.9942861,26.3366583 88.4604548,27.2836389 91.1252176,27.2836389 C91.1948953,27.2836389 91.2658083,27.2829904 91.3378441,27.2816133 L91.3378441,39.9974607 Z" id="Combined-Shape"></path>
                <path d="M91.3378441,39.9974607 C81.2265072,40.1494682 71,33.4767498 71,19.9793055 C71,6.50976461 81.2265072,-0.149159224 91.3378441,0.00253400336 L91.3378441,12.7167291 C91.2658037,12.7153535 91.1948906,12.7147055 91.1252176,12.7147055 C88.4604548,12.7147055 83.9942861,13.6594788 83.9942861,19.9793055 C83.9942861,26.3366583 88.4604548,27.2836389 91.1252176,27.2836389 C91.1948953,27.2836389 91.2658083,27.2829904 91.3378441,27.2816133 L91.3378441,39.9974607 Z" id="Combined-Shape"></path>
                <path d="M111.337844,39.9974607 C101.226507,40.1494682 91,33.4767498 91,19.9793055 C91,6.50976461 101.226507,-0.149159224 111.337844,0.00253400336 L111.337844,12.7167291 C111.265804,12.7153535 111.194891,12.7147055 111.125218,12.7147055 C108.460455,12.7147055 103.994286,13.6594788 103.994286,19.9793055 C103.994286,26.3366583 108.460455,27.2836389 111.125218,27.2836389 C111.194895,27.2836389 111.265808,27.2829904 111.337844,27.2816133 L111.337844,39.9974607 Z" id="Combined-Shape-Copy-3" transform="translate(101.168922, 20.000000) scale(-1, 1) translate(-101.168922, -20.000000) "></path>
                <path d="M32,55.33431 L31.0159478,55.33431 L17.1487787,40.6642251 L17.1487787,70 L0,70 L0,4 L6.18424063,4 L31.8600363,32.5820543 L32,32.4290328 L32,55.33431 Z" id="Combined-Shape" fill-rule="nonzero"></path>
                <path d="M32,55.33431 L31.0159478,55.33431 L17.1487787,40.6642251 L17.1487787,70 L0,70 L0,4 L6.18424063,4 L31.8600363,32.5820543 L32,32.4290328 L32,55.33431 Z" id="Combined-Shape-Copy" fill-rule="nonzero"></path>
                <path d="M64,55.33431 L63.0159478,55.33431 L49.1487787,40.6642251 L49.1487787,70 L32,70 L32,4 L38.1842406,4 L63.8600363,32.5820543 L64,32.4290328 L64,55.33431 Z" id="Combined-Shape-Copy-2" fill-rule="nonzero" transform="translate(48.000000, 37.000000) scale(-1, 1) translate(-48.000000, -37.000000) "></path>
            </g>
            <path d="M111.337844,39.9974607 C101.226507,40.1494682 91,33.4767498 91,19.9793055 C91,6.50976461 101.226507,-0.149159224 111.337844,0.00253400336 L111.337844,12.7167291 C111.265804,12.7153535 111.194891,12.7147055 111.125218,12.7147055 C108.460455,12.7147055 103.994286,13.6594788 103.994286,19.9793055 C103.994286,26.3366583 108.460455,27.2836389 111.125218,27.2836389 C111.194895,27.2836389 111.265808,27.2829904 111.337844,27.2816133 L111.337844,39.9974607 Z" id="Combined-Shape-Copy-3" fill="url(#linearGradient-1)" style="mix-blend-mode: multiply;" transform="translate(101.168922, 20.000000) scale(-1, 1) translate(-101.168922, -20.000000) "></path>
            <path d="M64,55.33431 L63.0159478,55.33431 L49.1487787,40.6642251 L49.1487787,70 L32,70 L32,4 L38.1842406,4 L63.8600363,32.5820543 L64,32.4290328 L64,55.33431 Z" id="Combined-Shape-Copy-2" fill="url(#linearGradient-1)" fill-rule="nonzero" style="mix-blend-mode: multiply;" transform="translate(48.000000, 37.000000) scale(-1, 1) translate(-48.000000, -37.000000) "></path>
        </g>
        <g id="Group-3" transform="translate(112.000000, 0.000000)">
            <g id="Group-Copy" fill="#FFFFFF">
                <path d="M91.3378441,39.9974607 C81.2265072,40.1494682 71,33.4767498 71,19.9793055 C71,6.50976461 81.2265072,-0.149159224 91.3378441,0.00253400336 L91.3378441,12.7167291 C91.2658037,12.7153535 91.1948906,12.7147055 91.1252176,12.7147055 C88.4604548,12.7147055 83.9942861,13.6594788 83.9942861,19.9793055 C83.9942861,26.3366583 88.4604548,27.2836389 91.1252176,27.2836389 C91.1948953,27.2836389 91.2658083,27.2829904 91.3378441,27.2816133 L91.3378441,39.9974607 Z" id="Combined-Shape"></path>
                <path d="M91.3378441,39.9974607 C81.2265072,40.1494682 71,33.4767498 71,19.9793055 C71,6.50976461 81.2265072,-0.149159224 91.3378441,0.00253400336 L91.3378441,12.7167291 C91.2658037,12.7153535 91.1948906,12.7147055 91.1252176,12.7147055 C88.4604548,12.7147055 83.9942861,13.6594788 83.9942861,19.9793055 C83.9942861,26.3366583 88.4604548,27.2836389 91.1252176,27.2836389 C91.1948953,27.2836389 91.2658083,27.2829904 91.3378441,27.2816133 L91.3378441,39.9974607 Z" id="Combined-Shape"></path>
                <path d="M111.337844,39.9974607 C101.226507,40.1494682 91,33.4767498 91,19.9793055 C91,6.50976461 101.226507,-0.149159224 111.337844,0.00253400336 L111.337844,12.7167291 C111.265804,12.7153535 111.194891,12.7147055 111.125218,12.7147055 C108.460455,12.7147055 103.994286,13.6594788 103.994286,19.9793055 C103.994286,26.3366583 108.460455,27.2836389 111.125218,27.2836389 C111.194895,27.2836389 111.265808,27.2829904 111.337844,27.2816133 L111.337844,39.9974607 Z" id="Combined-Shape-Copy-3" transform="translate(101.168922, 20.000000) scale(-1, 1) translate(-101.168922, -20.000000) "></path>
                <path d="M32,55.33431 L31.0159478,55.33431 L17.1487787,40.6642251 L17.1487787,70 L0,70 L0,4 L6.18424063,4 L31.8600363,32.5820543 L32,32.4290328 L32,55.33431 Z" id="Combined-Shape" fill-rule="nonzero"></path>
                <path d="M32,55.33431 L31.0159478,55.33431 L17.1487787,40.6642251 L17.1487787,70 L0,70 L0,4 L6.18424063,4 L31.8600363,32.5820543 L32,32.4290328 L32,55.33431 Z" id="Combined-Shape-Copy" fill-rule="nonzero"></path>
                <path d="M64,55.33431 L63.0159478,55.33431 L49.1487787,40.6642251 L49.1487787,70 L32,70 L32,4 L38.1842406,4 L63.8600363,32.5820543 L64,32.4290328 L64,55.33431 Z" id="Combined-Shape-Copy-2" fill-rule="nonzero" transform="translate(48.000000, 37.000000) scale(-1, 1) translate(-48.000000, -37.000000) "></path>
            </g>
            <path d="M112.337844,39.9974607 C102.226507,40.1494682 92,33.4767498 92,19.9793055 C92,6.50976461 102.226507,-0.149159224 112.337844,0.00253400336 L112.337844,12.7167291 C112.265804,12.7153535 112.194891,12.7147055 112.125218,12.7147055 C109.460455,12.7147055 104.994286,13.6594788 104.994286,19.9793055 C104.994286,26.3366583 109.460455,27.2836389 112.125218,27.2836389 C112.194895,27.2836389 112.265808,27.2829904 112.337844,27.2816133 L112.337844,39.9974607 Z" id="Combined-Shape-Copy-4" fill="url(#linearGradient-1)" style="mix-blend-mode: multiply;" transform="translate(102.168922, 20.000000) scale(-1, 1) translate(-102.168922, -20.000000) "></path>
            <path d="M65,55.33431 L64.0159478,55.33431 L50.1487787,40.6642251 L50.1487787,70 L33,70 L33,4 L39.1842406,4 L64.8600363,32.5820543 L65,32.4290328 L65,55.33431 Z" id="Combined-Shape-Copy-5" fill="url(#linearGradient-1)" fill-rule="nonzero" style="mix-blend-mode: multiply;" transform="translate(49.000000, 37.000000) scale(-1, 1) translate(-49.000000, -37.000000) "></path>
        </g>
        <g id="Group-4" transform="translate(224.000000, 0.000000)">
            <g id="Group-Copy-2">
                <path d="M91.3378441,39.9974607 C81.2265072,40.1494682 71,33.4767498 71,19.9793055 C71,6.50976461 81.2265072,-0.149159224 91.3378441,0.00253400336 L91.3378441,12.7167291 C91.2658037,12.7153535 91.1948906,12.7147055 91.1252176,12.7147055 C88.4604548,12.7147055 83.9942861,13.6594788 83.9942861,19.9793055 C83.9942861,26.3366583 88.4604548,27.2836389 91.1252176,27.2836389 C91.1948953,27.2836389 91.2658083,27.2829904 91.3378441,27.2816133 L91.3378441,39.9974607 Z" id="Combined-Shape" fill="#3DB776"></path>
                <path d="M91.3378441,39.9974607 C81.2265072,40.1494682 71,33.4767498 71,19.9793055 C71,6.50976461 81.2265072,-0.149159224 91.3378441,0.00253400336 L91.3378441,12.7167291 C91.2658037,12.7153535 91.1948906,12.7147055 91.1252176,12.7147055 C88.4604548,12.7147055 83.9942861,13.6594788 83.9942861,19.9793055 C83.9942861,26.3366583 88.4604548,27.2836389 91.1252176,27.2836389 C91.1948953,27.2836389 91.2658083,27.2829904 91.3378441,27.2816133 L91.3378441,39.9974607 Z" id="Combined-Shape" fill="#25303A"></path>
                <path d="M111.337844,39.9974607 C101.226507,40.1494682 91,33.4767498 91,19.9793055 C91,6.50976461 101.226507,-0.149159224 111.337844,0.00253400336 L111.337844,12.7167291 C111.265804,12.7153535 111.194891,12.7147055 111.125218,12.7147055 C108.460455,12.7147055 103.994286,13.6594788 103.994286,19.9793055 C103.994286,26.3366583 108.460455,27.2836389 111.125218,27.2836389 C111.194895,27.2836389 111.265808,27.2829904 111.337844,27.2816133 L111.337844,39.9974607 Z" id="Combined-Shape-Copy-3" fill="#25303A" transform="translate(101.168922, 20.000000) scale(-1, 1) translate(-101.168922, -20.000000) "></path>
                <path d="M32,55.33431 L31.0159478,55.33431 L17.1487787,40.6642251 L17.1487787,70 L0,70 L0,4 L6.18424063,4 L31.8600363,32.5820543 L32,32.4290328 L32,55.33431 Z" id="Combined-Shape" fill="#3DB776" fill-rule="nonzero"></path>
                <path d="M32,55.33431 L31.0159478,55.33431 L17.1487787,40.6642251 L17.1487787,70 L0,70 L0,4 L6.18424063,4 L31.8600363,32.5820543 L32,32.4290328 L32,55.33431 Z" id="Combined-Shape-Copy" fill="#25303A" fill-rule="nonzero"></path>
                <path d="M64,55.33431 L63.0159478,55.33431 L49.1487787,40.6642251 L49.1487787,70 L32,70 L32,4 L38.1842406,4 L63.8600363,32.5820543 L64,32.4290328 L64,55.33431 Z" id="Combined-Shape-Copy-2" fill="#25303A" fill-rule="nonzero" transform="translate(48.000000, 37.000000) scale(-1, 1) translate(-48.000000, -37.000000) "></path>
            </g>
            <path d="M111.337844,39.9974607 C101.226507,40.1494682 91,33.4767498 91,19.9793055 C91,6.50976461 101.226507,-0.149159224 111.337844,0.00253400336 L111.337844,12.7167291 C111.265804,12.7153535 111.194891,12.7147055 111.125218,12.7147055 C108.460455,12.7147055 103.994286,13.6594788 103.994286,19.9793055 C103.994286,26.3366583 108.460455,27.2836389 111.125218,27.2836389 C111.194895,27.2836389 111.265808,27.2829904 111.337844,27.2816133 L111.337844,39.9974607 Z" id="Combined-Shape-Copy-6" fill="url(#linearGradient-1)" style="mix-blend-mode: multiply;" transform="translate(101.168922, 20.000000) scale(-1, 1) translate(-101.168922, -20.000000) "></path>
            <path d="M64,55.33431 L63.0159478,55.33431 L49.1487787,40.6642251 L49.1487787,70 L32,70 L32,4 L38.1842406,4 L63.8600363,32.5820543 L64,32.4290328 L64,55.33431 Z" id="Combined-Shape-Copy-7" fill="url(#linearGradient-1)" fill-rule="nonzero" style="mix-blend-mode: multiply;" transform="translate(48.000000, 37.000000) scale(-1, 1) translate(-48.000000, -37.000000) "></path>
        </g>
    </g>
</svg>