<?xml version="1.0" encoding="UTF-8"?>
<svg width="122px" height="25px" viewBox="0 0 122 25" version="1.1" xmlns="http://www.w3.org/2000/svg" xmlns:xlink="http://www.w3.org/1999/xlink">
    <!-- Generator: Sketch 50 (54983) - http://www.bohemiancoding.com/sketch -->
    <title>murphyO_sm@2x</title>
    <desc>Created with Sketch.</desc>
    <defs>
        <linearGradient x1="-1.11022302e-14%" y1="50%" x2="100%" y2="50%" id="linearGradient-1">
            <stop stop-color="#FFFFFF" offset="0%"></stop>
            <stop stop-color="#F6F6F6" offset="100%"></stop>
        </linearGradient>
    </defs>
    <g id="murphyO_sm@2x" stroke="none" stroke-width="1" fill="none" fill-rule="evenodd">
        <g id="Group" transform="translate(41.000000, 0.000000)">
            <g id="Group-4">
                <g id="Group-2">
                    <path d="M33.1643362,14.2848074 C29.492958,14.3390958 25.7797619,11.9559821 25.7797619,7.13546625 C25.7797619,2.32491593 29.492958,-0.0532711516 33.1643362,0.000905001201 L33.1643362,4.54168896 C33.1381787,4.54119768 33.1124305,4.54096626 33.0871326,4.54096626 C32.1195699,4.54096626 30.4979253,4.87838528 30.4979253,7.13546625 C30.4979253,9.40594938 32.1195699,9.74415676 33.0871326,9.74415676 C33.1124322,9.74415676 33.1381804,9.74392514 33.1643362,9.74343334 L33.1643362,14.2848074 Z" id="Combined-Shape" fill="#FFFFFF"></path>
                    <path d="M40.426241,14.2848074 C36.7548627,14.3390958 33.0416667,11.9559821 33.0416667,7.13546625 C33.0416667,2.32491593 36.7548627,-0.0532711516 40.426241,0.000905001201 L40.426241,4.54168896 C40.4000835,4.54119768 40.3743353,4.54096626 40.3490373,4.54096626 C39.3814747,4.54096626 37.7598301,4.87838528 37.7598301,7.13546625 C37.7598301,9.40594938 39.3814747,9.74415676 40.3490373,9.74415676 C40.374337,9.74415676 40.4000852,9.74392514 40.426241,9.74343334 L40.426241,14.2848074 Z" id="Combined-Shape-Copy-3" fill="#FFFFFF" transform="translate(36.733954, 7.142857) scale(-1, 1) translate(-36.733954, -7.142857) "></path>
                    <path d="M11.6190476,19.7622536 L11.2617429,19.7622536 L6.22663988,14.5229375 L6.22663988,25 L0,25 L0,1.42857143 L2.24546832,1.42857143 L11.5682275,11.636448 L11.6190476,11.5817974 L11.6190476,19.7622536 Z" id="Combined-Shape-Copy" fill="#FFFFFF" fill-rule="nonzero"></path>
                    <path d="M23.2380952,19.7622536 L22.8807906,19.7622536 L17.8456875,14.5229375 L17.8456875,25 L11.6190476,25 L11.6190476,1.42857143 L13.8645159,1.42857143 L23.1872751,11.636448 L23.2380952,11.5817974 L23.2380952,19.7622536 Z" id="Combined-Shape-Copy-2" fill="#FFFFFF" fill-rule="nonzero" transform="translate(17.428571, 13.214286) scale(-1, 1) translate(-17.428571, -13.214286) "></path>
                    <path d="M40.426241,14.2848074 C36.7548627,14.3390958 33.0416667,11.9559821 33.0416667,7.13546625 C33.0416667,2.32491593 36.7548627,-0.0532711516 40.426241,0.000905001201 L40.426241,4.54168896 C40.4000835,4.54119768 40.3743353,4.54096626 40.3490373,4.54096626 C39.3814747,4.54096626 37.7598301,4.87838528 37.7598301,7.13546625 C37.7598301,9.40594938 39.3814747,9.74415676 40.3490373,9.74415676 C40.374337,9.74415676 40.4000852,9.74392514 40.426241,9.74343334 L40.426241,14.2848074 Z" id="Combined-Shape-Copy-3" fill="url(#linearGradient-1)" style="mix-blend-mode: multiply;" transform="translate(36.733954, 7.142857) scale(-1, 1) translate(-36.733954, -7.142857) "></path>
                    <path d="M23.2380952,19.7622536 L22.8807906,19.7622536 L17.8456875,14.5229375 L17.8456875,25 L11.6190476,25 L11.6190476,1.42857143 L13.8645159,1.42857143 L23.1872751,11.636448 L23.2380952,11.5817974 L23.2380952,19.7622536 Z" id="Combined-Shape-Copy-2" fill="url(#linearGradient-1)" fill-rule="nonzero" style="mix-blend-mode: multiply;" transform="translate(17.428571, 13.214286) scale(-1, 1) translate(-17.428571, -13.214286) "></path>
                </g>
            </g>
        </g>
        <g id="Group-Copy" transform="translate(0.000000, 0.000000)">
            <g id="Group-3">
                <path d="M33.1643362,14.2848074 C29.492958,14.3390958 25.7797619,11.9559821 25.7797619,7.13546625 C25.7797619,2.32491593 29.492958,-0.0532711516 33.1643362,0.000905001201 L33.1643362,4.54168896 C33.1381787,4.54119768 33.1124305,4.54096626 33.0871326,4.54096626 C32.1195699,4.54096626 30.4979253,4.87838528 30.4979253,7.13546625 C30.4979253,9.40594938 32.1195699,9.74415676 33.0871326,9.74415676 C33.1124322,9.74415676 33.1381804,9.74392514 33.1643362,9.74343334 L33.1643362,14.2848074 Z" id="Combined-Shape" fill="#FFFFFF"></path>
                <path d="M33.1643362,14.2848074 C29.492958,14.3390958 25.7797619,11.9559821 25.7797619,7.13546625 C25.7797619,2.32491593 29.492958,-0.0532711516 33.1643362,0.000905001201 L33.1643362,4.54168896 C33.1381787,4.54119768 33.1124305,4.54096626 33.0871326,4.54096626 C32.1195699,4.54096626 30.4979253,4.87838528 30.4979253,7.13546625 C30.4979253,9.40594938 32.1195699,9.74415676 33.0871326,9.74415676 C33.1124322,9.74415676 33.1381804,9.74392514 33.1643362,9.74343334 L33.1643362,14.2848074 Z" id="Combined-Shape" fill="#7B5FFF"></path>
                <path d="M40.426241,14.2848074 C36.7548627,14.3390958 33.0416667,11.9559821 33.0416667,7.13546625 C33.0416667,2.32491593 36.7548627,-0.0532711516 40.426241,0.000905001201 L40.426241,4.54168896 C40.4000835,4.54119768 40.3743353,4.54096626 40.3490373,4.54096626 C39.3814747,4.54096626 37.7598301,4.87838528 37.7598301,7.13546625 C37.7598301,9.40594938 39.3814747,9.74415676 40.3490373,9.74415676 C40.374337,9.74415676 40.4000852,9.74392514 40.426241,9.74343334 L40.426241,14.2848074 Z" id="Combined-Shape-Copy-3" fill="#775CF7" transform="translate(36.733954, 7.142857) scale(-1, 1) translate(-36.733954, -7.142857) "></path>
                <path d="M11.6190476,19.7622536 L11.2617429,19.7622536 L6.22663988,14.5229375 L6.22663988,25 L0,25 L0,1.42857143 L2.24546832,1.42857143 L11.5682275,11.636448 L11.6190476,11.5817974 L11.6190476,19.7622536 Z" id="Combined-Shape" fill="#FFFFFF" fill-rule="nonzero"></path>
                <path d="M11.6190476,19.7622536 L11.2617429,19.7622536 L6.22663988,14.5229375 L6.22663988,25 L0,25 L0,1.42857143 L2.24546832,1.42857143 L11.5682275,11.636448 L11.6190476,11.5817974 L11.6190476,19.7622536 Z" id="Combined-Shape-Copy" fill="#7B5FFF" fill-rule="nonzero"></path>
                <path d="M23.2380952,19.7622536 L22.8807906,19.7622536 L17.8456875,14.5229375 L17.8456875,25 L11.6190476,25 L11.6190476,1.42857143 L13.8645159,1.42857143 L23.1872751,11.636448 L23.2380952,11.5817974 L23.2380952,19.7622536 Z" id="Combined-Shape-Copy-2" fill="#775CF7" fill-rule="nonzero" transform="translate(17.428571, 13.214286) scale(-1, 1) translate(-17.428571, -13.214286) "></path>
            </g>
        </g>
        <g id="Group-Copy-2" transform="translate(82.000000, 0.000000)">
            <g id="Group-5">
                <path d="M33.1643362,14.2848074 C29.492958,14.3390958 25.7797619,11.9559821 25.7797619,7.13546625 C25.7797619,2.32491593 29.492958,-0.0532711516 33.1643362,0.000905001201 L33.1643362,4.54168896 C33.1381787,4.54119768 33.1124305,4.54096626 33.0871326,4.54096626 C32.1195699,4.54096626 30.4979253,4.87838528 30.4979253,7.13546625 C30.4979253,9.40594938 32.1195699,9.74415676 33.0871326,9.74415676 C33.1124322,9.74415676 33.1381804,9.74392514 33.1643362,9.74343334 L33.1643362,14.2848074 Z" id="Combined-Shape" fill="#3DB776"></path>
                <path d="M33.1643362,14.2848074 C29.492958,14.3390958 25.7797619,11.9559821 25.7797619,7.13546625 C25.7797619,2.32491593 29.492958,-0.0532711516 33.1643362,0.000905001201 L33.1643362,4.54168896 C33.1381787,4.54119768 33.1124305,4.54096626 33.0871326,4.54096626 C32.1195699,4.54096626 30.4979253,4.87838528 30.4979253,7.13546625 C30.4979253,9.40594938 32.1195699,9.74415676 33.0871326,9.74415676 C33.1124322,9.74415676 33.1381804,9.74392514 33.1643362,9.74343334 L33.1643362,14.2848074 Z" id="Combined-Shape" fill="#25303A"></path>
                <path d="M40.426241,14.2848074 C36.7548627,14.3390958 33.0416667,11.9559821 33.0416667,7.13546625 C33.0416667,2.32491593 36.7548627,-0.0532711516 40.426241,0.000905001201 L40.426241,4.54168896 C40.4000835,4.54119768 40.3743353,4.54096626 40.3490373,4.54096626 C39.3814747,4.54096626 37.7598301,4.87838528 37.7598301,7.13546625 C37.7598301,9.40594938 39.3814747,9.74415676 40.3490373,9.74415676 C40.374337,9.74415676 40.4000852,9.74392514 40.426241,9.74343334 L40.426241,14.2848074 Z" id="Combined-Shape-Copy-3" fill="#25303A" transform="translate(36.733954, 7.142857) scale(-1, 1) translate(-36.733954, -7.142857) "></path>
                <path d="M11.6190476,19.7622536 L11.2617429,19.7622536 L6.22663988,14.5229375 L6.22663988,25 L0,25 L0,1.42857143 L2.24546832,1.42857143 L11.5682275,11.636448 L11.6190476,11.5817974 L11.6190476,19.7622536 Z" id="Combined-Shape" fill="#3DB776" fill-rule="nonzero"></path>
                <path d="M11.6190476,19.7622536 L11.2617429,19.7622536 L6.22663988,14.5229375 L6.22663988,25 L0,25 L0,1.42857143 L2.24546832,1.42857143 L11.5682275,11.636448 L11.6190476,11.5817974 L11.6190476,19.7622536 Z" id="Combined-Shape-Copy" fill="#25303A" fill-rule="nonzero"></path>
                <path d="M23.2380952,19.7622536 L22.8807906,19.7622536 L17.8456875,14.5229375 L17.8456875,25 L11.6190476,25 L11.6190476,1.42857143 L13.8645159,1.42857143 L23.1872751,11.636448 L23.2380952,11.5817974 L23.2380952,19.7622536 Z" id="Combined-Shape-Copy-2" fill="#25303A" fill-rule="nonzero" transform="translate(17.428571, 13.214286) scale(-1, 1) translate(-17.428571, -13.214286) "></path>
                <path d="M40.426241,14.2848074 C36.7548627,14.3390958 33.0416667,11.9559821 33.0416667,7.13546625 C33.0416667,2.32491593 36.7548627,-0.0532711516 40.426241,0.000905001201 L40.426241,4.54168896 C40.4000835,4.54119768 40.3743353,4.54096626 40.3490373,4.54096626 C39.3814747,4.54096626 37.7598301,4.87838528 37.7598301,7.13546625 C37.7598301,9.40594938 39.3814747,9.74415676 40.3490373,9.74415676 C40.374337,9.74415676 40.4000852,9.74392514 40.426241,9.74343334 L40.426241,14.2848074 Z" id="Combined-Shape-Copy-6" fill="url(#linearGradient-1)" style="mix-blend-mode: multiply;" transform="translate(36.733954, 7.142857) scale(-1, 1) translate(-36.733954, -7.142857) "></path>
                <path d="M23.2380952,19.7622536 L22.8807906,19.7622536 L17.8456875,14.5229375 L17.8456875,25 L11.6190476,25 L11.6190476,1.42857143 L13.8645159,1.42857143 L23.1872751,11.636448 L23.2380952,11.5817974 L23.2380952,19.7622536 Z" id="Combined-Shape-Copy-7" fill="url(#linearGradient-1)" fill-rule="nonzero" style="mix-blend-mode: multiply;" transform="translate(17.428571, 13.214286) scale(-1, 1) translate(-17.428571, -13.214286) "></path>
            </g>
        </g>
    </g>
</svg>